# xmcd
#
# Track frame offsets:
#	150
#	13277
#	26324
#	34140
#	46005
#	64315
#	80614
#	100692
#	112689
#	126575
#	138870
#	158059
#	171450
#	187406
#	202550
#
# Disc length: 2962 seconds
#
# Revision: 5
# Processed by: cddbd v1.5.2PL0 Copyright (c) Steve Scherf et al.
# Submitted via: EZCDAudioConverter 2.1.7.1
#
DISCID=c40b900f
DTITLE=V/A - Beloved
DYEAR=2008
DGENRE=MOJO
TTITLE0=House Of Love - Real Animal
TTITLE1=Felt - Penelope Tree
TTITLE2=The La's - Son Of A Gun
TTITLE3=Monochrome Set - He's Frank (Slight Return)
TTITLE4=The Loft - Up The Hill And Down The Slope
TTITLE5=Blue Aeroplanes - Jacket Hangs
TTITLE6=The Sound - Total Recall
TTITLE7=Orange Juice - Simply Thrilled Honey
TTITLE8=McCarthy - Keep An Open Mind, Or Else
TTITLE9=Jane - It's A Fine Day
TTITLE10=Wild Swans - The Revolutionary Spirit
TTITLE11=Teardrop Explodes - Reward
TTITLE12=The Gist - Love At First Sight
TTITLE13=Wah! Heat - 7 Minutes To Midnight
TTITLE14=Half Man Half Biscuit - God Gave Us Life
EXTD=
EXTT0=
EXTT1=
EXTT2=
EXTT3=
EXTT4=
EXTT5=
EXTT6=
EXTT7=
EXTT8=
EXTT9=
EXTT10=
EXTT11=
EXTT12=
EXTT13=
EXTT14=
PLAYORDER=
